<?xml version="1.0" encoding="UTF-8"?>
<svg id="Layer_2" data-name="Layer 2" xmlns="http://www.w3.org/2000/svg" viewBox="0 0 234 198">
  <defs>
    <style>
      .cls-1 {
        opacity: .8;
      }

      .cls-1, .cls-2, .cls-3, .cls-4 {
        fill: #654ce2;
        stroke-width: 0px;
      }

      .cls-2 {
        opacity: .4;
      }

      .cls-3 {
        opacity: .6;
      }
    </style>
  </defs>
  <g id="Layer_1-2" data-name="Layer 1">
    <polygon class="cls-3" points="0 90 90 54 117 72 144 54 234 90 216 144 198 162 117 135 36 162 18 144 0 90"/>
    <polygon class="cls-3" points="62.07 8.69 0 63 36 0 62.07 8.69"/>
    <polygon class="cls-3" points="234 63 171.93 8.69 198 0 234 63"/>
    <polygon class="cls-1" points="36 162 117 135 198 162 162 189 117 171 72 189 36 162"/>
    <polygon class="cls-2" points="234 63 234 90 144 54 117 72 90 54 0 90 0 63 62.07 8.69 72 0 117 9 162 0 171.93 8.69 234 63"/>
    <polygon class="cls-4" points="72 189 117 171 162 189 117 198 72 189"/>
  </g>
</svg>