<svg width="261" height="66" id="Layer_2" data-name="Layer 2" xmlns="http://www.w3.org/2000/svg" viewBox="0 0 720.76 198">
    <symbol id="logo-symbol-wordmark">
        <g id="Layer_1-2" data-name="Layer 1">
            <polygon class="cls-3"
                points="0 90 90 54 117 72 144 54 234 90 216 144 198 162 117 135 36 162 18 144 0 90" />
            <polygon class="cls-3" points="62.07 8.69 0 63 36 0 62.07 8.69" />
            <polygon class="cls-3" points="234 63 171.93 8.69 198 0 234 63" />
            <polygon class="cls-1" points="36 162 117 135 198 162 162 189 117 171 72 189 36 162" />
            <polygon class="cls-2"
                points="234 63 234 90 144 54 117 72 90 54 0 90 0 63 62.07 8.69 72 0 117 9 162 0 171.93 8.69 234 63" />
            <polygon class="cls-4" points="72 189 117 171 162 189 117 198 72 189" />
            <g>
                <path class="cls-4"
                    d="m270.38,163.91v-90.94c0-1.43.64-2.65,1.93-3.65,1.29-1,2.94-1.5,4.94-1.5,1.86,0,3.44.51,4.73,1.53,1.29,1.02,1.93,2.25,1.93,3.7v10.67c2.58-4.78,6.38-8.84,11.39-12.18,5.01-3.34,10.82-5.01,17.41-5.01h7.52c1.43,0,2.72.66,3.87,1.97,1.15,1.31,1.72,2.84,1.72,4.59s-.57,3.28-1.72,4.59c-1.15,1.31-2.44,1.97-3.87,1.97h-7.52c-7.45,0-14.05,2.9-19.78,8.69-5.73,5.79-8.6,13.34-8.6,22.63v52.97c0,1.43-.68,2.72-2.04,3.86-1.36,1.15-3.05,1.72-5.05,1.72-1.86,0-3.48-.57-4.84-1.72-1.36-1.15-2.04-2.44-2.04-3.87Z" />
                <path class="cls-4"
                    d="m334.44,142.62c0-11.28,4.26-19.11,12.79-23.51,8.53-4.39,20.96-6.59,37.3-6.59h10.96v-5.06c0-7.73-2.08-14.45-6.23-20.14-4.16-5.7-10.53-8.55-19.13-8.55-5.73,0-10.93,1.02-15.59,3.06-4.66,2.04-7.13,3.06-7.42,3.06-1.72,0-3.08-.78-4.08-2.33-1-1.55-1.5-3.24-1.5-5.08,0-2.72,3.08-5.23,9.24-7.52,6.16-2.29,12.75-3.44,19.78-3.44,13.47,0,23.33,3.91,29.56,11.72,6.23,7.81,9.35,17.74,9.35,29.77v55.89c0,1.58-.65,2.9-1.93,3.98-1.29,1.07-2.94,1.61-4.94,1.61-1.86,0-3.41-.54-4.62-1.61-1.22-1.07-1.83-2.4-1.83-3.98v-9.46c-9.6,11.04-20.42,16.55-32.46,16.55-8.6,0-15.62-2.4-21.07-7.2-5.45-4.8-8.17-11.86-8.17-21.18Zm13.97-1.29c0,6.02,1.72,10.5,5.16,13.44,3.44,2.94,7.95,4.41,13.54,4.41,6.73,0,13.15-2.51,19.24-7.52,6.09-5.02,9.14-10.03,9.14-15.05v-13.76h-9.03c-5.73,0-10.57.21-14.51.64-3.94.43-7.85,1.22-11.72,2.36-3.87,1.15-6.81,3.01-8.81,5.59-2.01,2.58-3.01,5.88-3.01,9.89Z" />
                <path class="cls-4"
                    d="m435.7,163.91V10.62c0-1.43.64-2.65,1.93-3.65,1.29-1,2.94-1.5,4.94-1.5s3.69.5,5.05,1.5c1.36,1,2.04,2.22,2.04,3.65v104.7l52.46-46.65c1.43-.86,2.51-1.29,3.22-1.29,1.72,0,3.33.68,4.84,2.04,1.51,1.36,2.26,2.9,2.26,4.62s-.5,3.01-1.5,3.87l-31.6,27.73,37.19,54.39c.57,1.15.86,2.15.86,3.01,0,1.58-.79,3.15-2.36,4.73-1.58,1.58-3.3,2.36-5.16,2.36-1.72,0-3.15-.86-4.3-2.58l-36.12-53.1-19.78,17.41v32.03c0,1.43-.68,2.72-2.04,3.87-1.36,1.15-3.05,1.72-5.05,1.72-1.86,0-3.48-.57-4.84-1.72-1.36-1.15-2.04-2.44-2.04-3.87Z" />
                <path class="cls-4"
                    d="m532.65,130.58v-57.4c0-1.29.68-2.51,2.04-3.65,1.36-1.15,3.04-1.72,5.05-1.72,1.72,0,3.3.57,4.73,1.72,1.43,1.15,2.15,2.36,2.15,3.64v57.27c0,7.15,2.65,13.51,7.95,19.09,5.3,5.58,11.61,8.36,18.92,8.36s13.61-2.79,18.92-8.36c5.3-5.58,7.95-11.94,7.95-19.09v-57.48c0-1.43.72-2.64,2.15-3.64,1.43-1,3.08-1.5,4.94-1.5s3.47.5,4.84,1.5c1.36,1,2.04,2.22,2.04,3.65v57.61c0,10.75-4.05,20.17-12.15,28.27-8.1,8.1-17.67,12.15-28.7,12.15s-20.78-4.05-28.81-12.15c-8.03-8.1-12.04-17.52-12.04-28.27Z" />
                <path class="cls-4"
                    d="m640.35,163.91v-90.94c0-1.58.64-2.83,1.93-3.76,1.29-.93,2.94-1.4,4.94-1.4,1.72,0,3.22.51,4.51,1.53,1.29,1.02,1.93,2.25,1.93,3.71v10.03c2.44-4.64,6.16-8.56,11.18-11.76,5.02-3.19,10.89-4.79,17.63-4.79,10.32,0,19.27,3.94,26.87,11.82,7.59,7.88,11.39,17.34,11.39,28.38v57.18c0,1.72-.72,3.08-2.15,4.08-1.43,1-3.08,1.5-4.94,1.5-1.72,0-3.3-.5-4.73-1.5-1.43-1-2.15-2.36-2.15-4.07v-57.05c0-7.01-2.65-13.3-7.95-18.87-5.3-5.58-11.61-8.36-18.92-8.36-6.74,0-12.68,2.5-17.84,7.51-5.16,5.01-7.74,11.58-7.74,19.73v57.05c0,1.43-.72,2.72-2.15,3.86-1.43,1.15-3.08,1.72-4.94,1.72-2.01,0-3.65-.57-4.94-1.72-1.29-1.15-1.93-2.44-1.93-3.87Z" />
            </g>
        </g>
    </symbol>
</svg>